<svg width="130" height="30" viewBox="0 0 130 30" fill="none" xmlns="http://www.w3.org/2000/svg">
<path d="M8.88777 3.74327V0H11.4332V3.74327H13.9665V0H16.518V3.74327H19.0513V0H21.5846V3.74327H26.6633V8.74228H30.4845V11.2537H26.6633V13.7473H30.4845V16.2587H26.6633V18.7522H30.4845V21.2458H24.124V6.25473H6.35448V23.7453L21.5785 23.7632V26.5438V30H19.0452V26.2388H16.5119V30H13.9604V26.2388H11.4271V30H8.8817V26.2388H3.80297V21.2398H0V18.7463H3.80297V16.2527H0V13.7413H3.80297V11.2478H0V8.7363H3.80297V3.74327H8.88777ZM11.2267 13.4244C12.1075 13.4244 12.8305 14.118 12.8305 14.997C12.8305 15.8641 12.1075 16.5756 11.2267 16.5756C10.3336 16.5756 9.62285 15.8641 9.62285 14.997C9.62285 14.118 10.3336 13.4244 11.2267 13.4244ZM19.2518 13.4244C18.3587 13.4244 17.654 14.118 17.654 14.997C17.654 15.8641 18.3587 16.5756 19.2518 16.5756C20.1327 16.5756 20.8556 15.8641 20.8556 14.997C20.8556 14.118 20.1327 13.4244 19.2518 13.4244Z" fill="#00A0DC"/>
<path fill-rule="evenodd" clip-rule="evenodd" d="M23.3827 26.46L25.1748 24.696L26.967 26.46L30.5695 22.9141L32.3555 24.696L28.7591 28.224L26.967 30L25.1748 28.224L23.3827 26.46Z" fill="#E68523"/>
<path d="M45.8217 20.2651C44.3758 20.2651 43.3248 19.8585 42.7052 19.0273C42.0855 18.1782 41.7757 16.7729 41.7757 14.7877C41.7757 12.8024 42.1524 11.3793 42.8935 10.5362C43.6347 9.68704 44.959 9.26248 46.8544 9.26248L50.4387 9.48373V24.7558H48.8531V19.5714C47.8386 20.0259 46.8362 20.2651 45.8217 20.2651ZM46.8726 10.6378C45.5301 10.6378 44.6188 10.9786 44.1328 11.6364C43.6529 12.3002 43.4099 13.3466 43.4099 14.8056C43.4099 16.2467 43.5982 17.2812 43.9931 17.9091C44.388 18.537 45.0623 18.8599 45.9918 18.8599C46.818 18.8599 47.6442 18.6924 48.4522 18.3875L48.847 18.238V10.7694C47.954 10.6856 47.304 10.6378 46.8726 10.6378ZM60.2681 9.48373H61.8719V20.0618H60.2681V19.3143C59.1807 19.9601 58.1358 20.2651 57.0848 20.2651C55.6207 20.2651 54.6548 19.8943 54.1748 19.1469C53.6949 18.3994 53.4519 17.0121 53.4519 14.997V9.48971H55.0557V14.979C55.0557 16.5218 55.1954 17.5563 55.4688 18.0646C55.7422 18.5908 56.3618 18.8599 57.3278 18.8599C57.7895 18.8599 58.2755 18.7941 58.7554 18.6565C59.2536 18.519 59.6181 18.3815 59.8732 18.2679L60.2681 18.0646V9.48373ZM72.564 12.6709V18.0945C72.6004 18.6027 73.0135 18.9256 73.8033 19.0273L73.7364 20.2651C72.6186 20.2651 71.756 19.996 71.1849 19.416C69.891 19.99 68.603 20.2651 67.3091 20.2651C66.3249 20.2651 65.5716 19.996 65.0552 19.4518C64.5388 18.8897 64.2776 18.0945 64.2776 17.0779C64.2776 16.0434 64.5388 15.278 65.0674 14.8056C65.602 14.3153 66.4282 14.0103 67.5642 13.8907L70.9419 13.5858V12.6709C70.9419 11.9593 70.784 11.4331 70.4741 11.1281C70.1461 10.8232 69.7148 10.6557 69.1802 10.6557C68.0259 10.6557 66.8413 10.7395 65.602 10.877L64.9459 10.9428L64.879 9.74086C66.4646 9.41795 67.8558 9.26846 69.0647 9.26846C70.2858 9.26846 71.1849 9.53755 71.7317 10.0996C72.2906 10.6378 72.564 11.4989 72.564 12.6709ZM65.9361 16.9942C65.9361 18.2798 66.4889 18.9436 67.5703 18.9436C68.5544 18.9436 69.5021 18.7761 70.4438 18.4532L70.9419 18.2858V14.7937L67.7586 15.0807C67.1207 15.1465 66.659 15.3378 66.3614 15.6428C66.0758 15.9418 65.9361 16.3962 65.9361 16.9942ZM77.3511 20.0618H75.7351V9.48373H77.3329V10.2132C78.4871 9.58538 79.6049 9.26248 80.6559 9.26248C82.1018 9.26248 83.0677 9.65116 83.5476 10.3986C84.0458 11.164 84.2888 12.5154 84.2888 14.4648V20.0558H82.7032V14.5126C82.7032 13.0416 82.5513 12.037 82.2536 11.4989C81.962 10.9547 81.3424 10.6856 80.3765 10.6856C79.9087 10.6856 79.4287 10.7514 78.9306 10.889C78.4142 11.0085 78.0376 11.1461 77.7581 11.2776L77.345 11.463V20.0618H77.3511ZM92.7817 10.8531H89.3736V15.9059C89.3736 17.1257 89.4586 17.921 89.647 18.2978C89.8171 18.6864 90.2484 18.8718 90.9227 18.8718L92.8363 18.7343L92.9396 20.0558C91.9737 20.2113 91.2508 20.277 90.7526 20.277C89.6348 20.277 88.8572 20.0199 88.4259 19.4817C87.9945 18.9376 87.788 17.921 87.788 16.4142V10.8531H86.2571V9.47775H87.788V6.24275H89.3736V9.47775H92.7817V10.8531ZM97.4291 20.0618H94.5556V6.24873L97.4291 5.25012V9.98004C98.4254 9.48971 99.3063 9.23258 100.096 9.23258C101.524 9.23258 102.526 9.6392 103.061 10.4704C103.613 11.3015 103.887 12.5872 103.887 14.3213V20.0677H100.995V14.3871C100.995 13.508 100.892 12.8443 100.685 12.4018C100.461 11.9773 100.029 11.756 99.3974 11.756C98.8263 11.756 98.2796 11.8397 97.7085 12.0131L97.4291 12.0968V20.0618ZM112.775 9.48373H115.666V20.0618H112.805V19.4698C111.772 20.0319 110.873 20.3189 110.12 20.3189C108.619 20.3189 107.623 19.9123 107.107 19.099C106.59 18.2858 106.329 16.9284 106.329 15.0329V9.48971H109.202V15.0687C109.202 16.1212 109.288 16.8327 109.458 17.2035C109.628 17.5922 110.041 17.7775 110.715 17.7775C111.335 17.7775 111.936 17.6759 112.489 17.4726L112.762 17.3889V9.48373H112.775ZM123.54 9.2266C125.034 9.2266 126.14 9.61528 126.826 10.4285C127.531 11.2418 127.877 12.7008 127.877 14.7877C127.877 16.8746 127.482 18.3157 126.674 19.111C125.866 19.9063 124.487 20.3129 122.525 20.3129C121.905 20.3129 120.788 20.2471 119.153 20.0917L118.345 20.0079V6.24873L121.219 5.25012V9.79467C122.13 9.41795 122.902 9.2266 123.54 9.2266ZM122.525 17.7716C123.491 17.7716 124.129 17.5324 124.457 17.0779C124.803 16.6175 124.955 15.8042 124.955 14.6203C124.955 12.7247 124.354 11.756 123.145 11.756C122.574 11.756 122.027 11.8397 121.511 11.9773L121.219 12.043V17.6878C121.869 17.7357 122.318 17.7716 122.525 17.7716Z" fill="#3A3C3E"/>
</svg>
